<?xml version="1.0" standalone="no"?>
<!DOCTYPE svg PUBLIC "-//W3C//DTD SVG 20010904//EN"
 "http://www.w3.org/TR/2001/REC-SVG-20010904/DTD/svg10.dtd">
<svg version="1.0" xmlns="http://www.w3.org/2000/svg"
 width="100.000000pt" height="100.000000pt" viewBox="0 0 100.000000 100.000000"
 preserveAspectRatio="xMidYMid meet">
<metadata>
Created by potrace 1.14, written by Peter Selinger 2001-2017
</metadata>
<g transform="translate(0.000000,100.000000) scale(0.100000,-0.100000)"
fill="#000000" stroke="none">
<path d="M22 978 c-17 -17 -17 -429 0 -446 17 -17 429 -17 446 0 17 17 17 429
0 446 -17 17 -429 17 -446 0z"/>
<path d="M833 940 c-31 -13 -53 -51 -61 -105 -8 -56 -25 -60 -32 -8 -12 78
-69 122 -133 100 -29 -10 -67 -51 -67 -73 0 -21 44 -17 65 6 35 38 72 20 79
-39 3 -25 0 -31 -15 -32 -11 -1 -28 -3 -39 -4 -11 -1 -27 -3 -34 -4 -8 0 -27
-12 -42 -26 -21 -20 -28 -36 -30 -72 -2 -41 1 -50 30 -79 32 -32 36 -33 110
-32 l76 1 0 78 c0 64 3 79 15 79 12 0 15 -16 15 -80 0 -78 1 -80 24 -80 28 0
33 14 32 98 l-1 62 40 0 c49 0 102 31 116 68 15 38 4 92 -24 120 -27 26 -89
37 -124 22z m82 -65 c30 -29 30 -36 8 -63 -16 -18 -50 -27 -89 -23 -20 2 -8
74 16 93 29 23 36 23 65 -7z m-234 -157 c6 -53 -17 -98 -51 -98 -23 0 -58 41
-55 63 2 10 9 25 15 32 15 19 89 20 91 3z"/>
<path d="M22 468 c-17 -17 -17 -429 0 -446 17 -17 429 -17 446 0 17 17 17 429
0 446 -17 17 -429 17 -446 0z"/>
<path d="M532 468 c-17 -17 -17 -429 0 -446 17 -17 429 -17 446 0 17 17 17
429 0 446 -17 17 -429 17 -446 0z"/>
</g>
</svg>
